<?xml version="1.0" standalone="no"?>
<!DOCTYPE svg PUBLIC "-//W3C//DTD SVG 20010904//EN"
 "http://www.w3.org/TR/2001/REC-SVG-20010904/DTD/svg10.dtd">
<svg version="1.0" xmlns="http://www.w3.org/2000/svg"
 width="700.000000pt" height="700.000000pt" viewBox="0 0 700.000000 700.000000"
 preserveAspectRatio="xMidYMid meet">
<metadata>
Created by potrace 1.11, written by Peter Selinger 2001-2013
</metadata>
<g transform="translate(0.000000,700.000000) scale(0.100000,-0.100000)"
fill="#000000" stroke="none">
<path d="M2585 6981 c-169 -50 -290 -161 -347 -319 -19 -52 -21 -82 -23 -344
-2 -250 0 -296 17 -359 23 -91 67 -165 137 -231 l53 -51 0 -392 0 -392 -34
-49 c-19 -27 -63 -92 -98 -144 -36 -52 -68 -99 -73 -105 -7 -10 -185 -269
-426 -622 -63 -93 -137 -199 -164 -238 -26 -38 -139 -203 -251 -365 -111 -162
-350 -511 -531 -775 -181 -264 -400 -583 -487 -710 -86 -126 -161 -234 -165
-240 -43 -52 -153 -281 -153 -319 0 -10 -4 -25 -9 -34 -27 -51 -34 -280 -13
-402 64 -379 340 -693 727 -827 73 -25 90 -30 140 -38 17 -3 55 -10 85 -15 58
-9 5063 -8 5090 1 8 3 33 9 55 13 22 4 76 19 120 33 284 90 519 286 652 543
33 63 81 200 88 252 4 23 10 60 15 81 15 67 3 265 -20 356 -50 190 -61 209
-488 831 -150 217 -276 402 -282 410 -6 8 -47 69 -93 135 -45 66 -123 179
-171 250 -305 445 -1175 1714 -1258 1833 l-99 144 0 395 0 395 40 34 c73 63
135 166 157 261 3 16 7 155 8 309 3 305 -2 342 -52 444 -15 30 -54 83 -87 116
-65 66 -129 103 -227 134 -58 18 -104 19 -917 19 -791 0 -861 -2 -916 -18z
m1787 -263 c45 -20 89 -62 114 -108 17 -32 19 -59 19 -310 0 -239 -2 -280 -17
-311 -22 -45 -60 -84 -116 -116 -75 -44 -72 -24 -72 -563 0 -407 2 -485 15
-510 8 -16 50 -80 93 -142 43 -62 112 -162 153 -223 74 -109 220 -322 289
-421 19 -28 78 -114 129 -190 52 -76 99 -143 103 -149 5 -5 55 -77 111 -160
56 -82 125 -184 154 -225 110 -159 268 -392 278 -408 6 -9 13 -19 16 -22 3 -3
60 -86 128 -185 67 -99 173 -254 236 -345 62 -91 152 -221 199 -290 47 -69
157 -231 246 -360 170 -248 223 -342 247 -443 25 -107 25 -251 -1 -362 -21
-93 -97 -245 -151 -301 -5 -6 -22 -24 -36 -40 -88 -98 -233 -191 -357 -228
-136 -40 -91 -39 -2617 -40 -2233 -1 -2519 1 -2609 19 -143 29 -309 120 -414
226 -148 151 -222 323 -227 526 -5 161 30 284 122 432 26 42 51 81 56 86 4 6
97 141 207 300 109 160 222 325 252 367 54 78 172 251 433 633 79 116 182 266
230 335 48 69 219 319 381 555 163 237 379 552 482 702 103 150 202 296 220
325 l32 52 0 479 c0 533 1 526 -66 562 -56 30 -101 76 -123 125 -18 40 -20 68
-21 293 0 141 4 264 10 286 22 83 92 146 180 161 19 3 400 5 845 5 721 -1 814
-3 847 -17z"/>
<path d="M3203 3878 l2 -183 182 -1 c123 0 183 3 186 10 2 6 4 89 5 184 l0
172 -189 0 -189 0 3 -182z"/>
<path d="M3962 3328 l3 -293 298 0 297 0 0 292 0 293 -300 0 -300 0 2 -292z"/>
<path d="M2665 2773 c0 -192 -1 -355 -3 -363 -3 -14 -51 -15 -386 -15 l-382 0
-139 -205 c-585 -868 -701 -1046 -703 -1077 -3 -44 27 -94 69 -115 32 -17 166
-18 2376 -18 2632 0 2393 -7 2433 75 25 51 25 75 1 117 -21 38 -949 1428 -963
1443 -6 6 -266 10 -741 10 l-732 0 -1 240 c-1 132 -2 243 -3 248 0 4 -187 7
-414 7 l-413 0 1 -347z m1659 -841 c1 -140 -1 -257 -4 -261 -3 -4 -124 -7
-270 -7 l-265 1 -1 263 0 262 270 -2 270 -3 0 -253z m-869 -420 c0 -79 -2
-147 -5 -151 -3 -4 -71 -7 -152 -7 -125 0 -149 2 -153 16 -2 8 -3 77 -2 153
l1 137 156 -2 155 -3 0 -143z"/>
</g>
</svg>
